HIERARCHY
ROOT Hips
{
	OFFSET 0.000000 0.000000 0.000000
	CHANNELS 6 Xposition Yposition Zposition Xrotation Yrotation Zrotation
	JOINT LeftUpLeg_virtual
	{
		OFFSET 0.000000 0.000000 0.000000
		CHANNELS 3 Xrotation Yrotation Zrotation
		JOINT LeftUpLeg
		{
			OFFSET 13.026900 -6.336304 -1.092800
			CHANNELS 3 Xrotation Yrotation Zrotation
			JOINT LeftLeg
			{
				OFFSET 0.524474 -46.096886 9.782700
				CHANNELS 3 Xrotation Yrotation Zrotation
				JOINT LeftFoot
				{
					OFFSET -0.524474 -53.427422 -12.948200
					CHANNELS 3 Xrotation Yrotation Zrotation
					JOINT LeftToeBase
					{
						OFFSET 0.192200 -14.009700 16.364100
						CHANNELS 3 Xrotation Yrotation Zrotation
						JOINT LeftToe_End
						{
							OFFSET -1.784700 -0.561700 9.474800
							CHANNELS 3 Xrotation Yrotation Zrotation
							End Site
							{
								OFFSET 0 0 0
							}
						}
					}
				}
			}
		}
	}
	JOINT RightUpLeg_virtual
	{
		OFFSET 0.000000 0.000000 0.000000
		CHANNELS 3 Xrotation Yrotation Zrotation
		JOINT RightUpLeg
		{
			OFFSET -12.883000 -6.336304 -1.092800
			CHANNELS 3 Xrotation Yrotation Zrotation
			JOINT RightLeg
			{
				OFFSET -0.524587 -46.096825 9.782800
				CHANNELS 3 Xrotation Yrotation Zrotation
				JOINT RightFoot
				{
					OFFSET 0.524587 -53.427383 -12.948300
					CHANNELS 3 Xrotation Yrotation Zrotation
					JOINT RightToeBase
					{
						OFFSET -0.192200 -14.009700 16.364100
						CHANNELS 3 Xrotation Yrotation Zrotation
						JOINT RightToe_End
						{
							OFFSET 1.784700 -0.561700 9.474800
							CHANNELS 3 Xrotation Yrotation Zrotation
							End Site
							{
								OFFSET 0 0 0
							}
						}
					}
				}
			}
		}
	}
	JOINT Spine_virtual
	{
		OFFSET 0.000000 0.000000 0.000000
		CHANNELS 3 Xrotation Yrotation Zrotation
		JOINT Spine
		{
			OFFSET 0.072000 7.257294 -0.789700
			CHANNELS 3 Xrotation Yrotation Zrotation
			JOINT Spine1
			{
				OFFSET 0.000000 12.508769 -0.658067
				CHANNELS 3 Xrotation Yrotation Zrotation
				JOINT Spine1_split
				{
					OFFSET 0.000000 12.508769 -0.658067
					CHANNELS 3 Xrotation Yrotation Zrotation
					JOINT Spine2
					{
						OFFSET 0.000000 12.508769 -0.658067
						CHANNELS 3 Xrotation Yrotation Zrotation
						JOINT Neck_virtual
						{
							OFFSET 0.000000 0.000000 0.000000
							CHANNELS 3 Xrotation Yrotation Zrotation
							JOINT Neck
							{
								OFFSET 0.000000 14.033295 7.520400
								CHANNELS 3 Xrotation Yrotation Zrotation
								JOINT Head
								{
									OFFSET 0.000000 8.198502 5.703100
									CHANNELS 3 Xrotation Yrotation Zrotation
									JOINT HeadTop_End
									{
										OFFSET 0.000000 17.760803 13.332701
										CHANNELS 3 Xrotation Yrotation Zrotation
										End Site
										{
											OFFSET 0 0 0
										}
									}
								}
							}
						}
						JOINT LeftShoulder_virtual
						{
							OFFSET 0.000000 0.000000 0.000000
							CHANNELS 3 Xrotation Yrotation Zrotation
							JOINT LeftShoulder
							{
								OFFSET 6.292450 5.785301 -0.669000
								CHANNELS 3 Xrotation Yrotation Zrotation
								JOINT LeftShoulder_split
								{
									OFFSET 6.292450 5.785301 -0.669000
									CHANNELS 3 Xrotation Yrotation Zrotation
									JOINT LeftArm
									{
										OFFSET 13.907140 -6.093903 1.965100
										CHANNELS 3 Xrotation Yrotation Zrotation
										JOINT LeftForeArm
										{
											OFFSET 34.140198 0.000000 0.000000
											CHANNELS 3 Xrotation Yrotation Zrotation
											JOINT LeftHand
											{
												OFFSET 40.960209 0.000000 0.000000
												CHANNELS 3 Xrotation Yrotation Zrotation
												End Site
												{
													OFFSET 0 0 0
												}
											}
										}
									}
								}
							}
						}
						JOINT RightShoulder_virtual
						{
							OFFSET 0.000000 0.000000 0.000000
							CHANNELS 3 Xrotation Yrotation Zrotation
							JOINT RightShoulder
							{
								OFFSET -6.292450 5.785301 -0.669000
								CHANNELS 3 Xrotation Yrotation Zrotation
								JOINT RightShoulder_split
								{
									OFFSET -6.292450 5.785301 -0.669000
									CHANNELS 3 Xrotation Yrotation Zrotation
									JOINT RightArm
									{
										OFFSET -13.907140 -6.093903 1.965100
										CHANNELS 3 Xrotation Yrotation Zrotation
										JOINT RightForeArm
										{
											OFFSET -34.140198 0.000000 0.000000
											CHANNELS 3 Xrotation Yrotation Zrotation
											JOINT RightHand
											{
												OFFSET -40.960209 0.000000 0.000000
												CHANNELS 3 Xrotation Yrotation Zrotation
												End Site
												{
													OFFSET 0 0 0
												}
											}
										}
									}
								}
							}
						}
					}
				}
			}
		}
	}
}
MOTION
Frames: 10
Frame Time: 0.03333333
3.426664 103.646904 -3.194149 0.000000 0.000000 0.000000 -6.360009 -47.039448 -6.555044 -39.979252 -7.241446 14.482900 30.332614 -5.265366 -1.180414 11.386648 -6.554034 -7.223868 -3.956300 -2.950735 0.434519 0.000000 0.000000 0.000000 -5.803604 -43.212933 -6.482894 -3.662308 -21.511235 -12.744163 40.432445 -0.591499 -2.532025 -18.426442 -6.285964 18.114755 -3.373596 0.309899 0.458247 0.000000 0.000000 0.000000 -10.638413 -41.868722 -9.592919 7.152444 5.295459 0.063456 12.345553 9.450484 -3.805937 1.253627 3.565454 -0.032900 0.000000 0.000000 0.000000 10.373214 8.622636 -4.279994 -6.406675 -4.127306 3.581532 -13.017255 21.592972 1.377816 0.000000 0.000000 0.000000 11.419350 9.078966 -3.972653 2.750860 -2.416140 -4.132387 -2.726898 -0.860577 -3.851389 -15.082234 -1.434617 -58.004712 18.102916 -54.537114 8.304473 0.000000 0.000000 0.000000 11.839143 9.208963 -4.075046 1.379785 11.021642 11.245733 -0.449999 2.255839 2.230036 3.950585 -19.633488 62.372338 -0.474259 47.541836 3.070573 0.000000 0.000000 0.000000 
3.270956 103.145821 -2.814819 0.000000 0.000000 0.000000 -4.482872 -45.646134 -5.525811 -40.749233 -7.430652 14.887002 30.582104 -4.868764 -1.272483 11.123645 -6.683845 -6.348527 -3.613633 -2.920124 0.353369 0.000000 0.000000 0.000000 -4.813819 -41.579702 -6.028662 -4.178594 -20.966739 -12.272725 39.942683 0.033110 -3.637515 -18.676046 -6.221784 19.705832 -3.352986 0.218166 0.524386 0.000000 0.000000 0.000000 -8.461101 -41.294391 -8.505313 7.140511 5.413689 0.149211 12.388054 9.463684 -3.833245 0.458305 1.888711 0.337880 0.000000 0.000000 0.000000 10.156534 8.687521 -4.110256 -6.371291 -3.999352 3.159863 -12.654721 21.599975 1.627086 0.000000 0.000000 0.000000 11.473738 9.030334 -4.071363 2.771745 -2.525586 -4.556898 -2.502944 -0.595694 -3.382138 -11.890478 -0.934255 -57.102441 19.718765 -56.635826 9.036207 0.000000 0.000000 0.000000 11.820674 9.389750 -3.837011 1.549564 11.222971 11.018128 -0.386338 2.992395 0.811729 3.240299 -19.977680 61.318788 0.569640 48.289106 1.942239 0.000000 0.000000 0.000000 
2.713269 102.000977 -3.068253 0.000000 0.000000 0.000000 -1.670655 -42.737535 -4.295862 -44.394389 -7.421181 16.090773 31.988378 -4.596990 -0.678276 11.738860 -8.004317 -5.497668 -3.932685 -2.905408 0.251886 0.000000 0.000000 0.000000 -2.430246 -37.955692 -5.226568 -5.372653 -20.475145 -11.368712 40.343001 1.090793 -5.386090 -19.099369 -5.856217 21.005209 -3.095509 0.216855 0.533160 0.000000 0.000000 0.000000 -5.369695 -38.962285 -7.273020 7.434276 5.250567 0.007809 12.455285 9.249345 -3.542527 0.230607 0.414511 0.734279 0.000000 0.000000 0.000000 10.025501 8.565960 -3.568935 -6.389872 -4.101021 2.458105 -11.964058 21.363023 1.663735 0.000000 0.000000 0.000000 11.580282 8.790829 -3.869472 2.824304 -3.027629 -4.876425 -2.605136 -0.292947 -2.577221 -6.337756 -0.208748 -55.930613 19.928725 -61.639869 8.392329 0.000000 0.000000 0.000000 11.830983 9.390921 -3.291250 1.786178 11.068251 10.372443 -0.209267 3.076794 0.127955 3.237517 -18.434568 60.138552 3.668479 49.740805 -1.285396 0.000000 0.000000 0.000000 
2.008103 100.414169 -3.966267 0.000000 0.000000 0.000000 1.795740 -38.635628 -3.239780 -50.911421 -7.227716 17.929573 34.179267 -4.374290 0.345253 13.453185 -10.550465 -4.625773 -4.911652 -2.905142 0.422708 0.000000 0.000000 0.000000 0.911699 -33.271866 -4.493635 -7.442895 -20.105714 -10.101168 42.169820 2.422529 -7.635309 -19.795572 -5.331602 21.957795 -2.847619 0.296982 0.492345 0.000000 0.000000 0.000000 -1.549711 -35.494284 -6.152590 7.891697 4.878048 -0.308964 12.511232 8.856246 -3.020737 0.559539 -0.612155 0.751003 0.000000 0.000000 0.000000 10.053965 8.254553 -2.805421 -6.613399 -4.313441 1.636357 -11.092342 21.059203 1.394809 0.000000 0.000000 0.000000 11.684906 8.436621 -3.426340 2.868509 -3.710200 -4.923564 -2.654938 -0.398424 -1.425874 0.478521 0.504185 -54.772598 18.787074 -68.532213 6.599824 0.000000 0.000000 0.000000 11.920654 9.203859 -2.594499 2.005948 10.530763 9.438190 0.312833 3.094403 0.140215 3.735762 -15.409660 59.232200 8.559153 51.735910 -6.397464 0.000000 0.000000 0.000000 
1.211706 98.555405 -5.013882 0.000000 0.000000 0.000000 5.715304 -33.974119 -2.619658 -59.332638 -7.068494 19.958492 37.259321 -3.871337 1.560806 16.194964 -13.468123 -3.208034 -5.909276 -2.838758 0.795386 0.000000 0.000000 0.000000 4.850995 -28.420100 -3.984215 -10.431505 -20.022812 -8.614128 46.126620 3.850887 -10.279294 -20.677582 -4.713723 22.759083 -2.904419 0.447026 0.391066 0.000000 0.000000 0.000000 2.606041 -31.736115 -5.402845 8.369666 4.441637 -0.692769 12.556369 8.340887 -2.420704 1.155171 -1.222740 0.552548 0.000000 0.000000 0.000000 10.327093 7.791420 -2.026972 -7.307980 -4.473157 0.820144 -10.294757 20.879951 0.928615 0.000000 0.000000 0.000000 11.822992 8.022046 -2.890931 2.921684 -4.279330 -4.601135 -2.197856 -1.114439 -0.374214 7.112270 0.899435 -54.224991 16.415619 -75.576030 3.741978 0.000000 0.000000 0.000000 12.152937 8.831782 -1.936387 2.182053 9.470378 8.262875 1.135392 3.116888 0.432377 4.381558 -11.525304 58.937327 14.770749 53.967725 -12.994437 0.000000 0.000000 0.000000 
0.476864 96.374878 -5.897457 0.000000 0.000000 0.000000 9.981576 -29.382808 -2.454361 -68.842720 -6.857597 21.572744 40.675952 -2.536521 2.592644 19.176260 -15.749819 -0.884268 -5.878563 -2.598015 1.097418 0.000000 0.000000 0.000000 9.116424 -24.131224 -3.725434 -14.521949 -20.313368 -7.097936 52.659693 4.945409 -13.136219 -21.559345 -4.082104 23.612451 -3.343620 0.623492 0.255796 0.000000 0.000000 0.000000 7.152223 -28.522517 -4.885229 8.729405 4.168024 -1.023132 12.606379 7.775474 -1.860509 1.799163 -1.002117 0.364887 0.000000 0.000000 0.000000 10.822476 7.292143 -1.391318 -8.763361 -4.586200 0.040004 -9.758021 20.976990 0.357373 0.000000 0.000000 0.000000 12.005886 7.612036 -2.318944 2.970876 -4.381729 -3.801759 -1.656299 -2.033945 0.426999 12.536705 0.470709 -54.752142 13.697350 -80.595979 0.734265 0.000000 0.000000 0.000000 12.539584 8.344768 -1.456817 2.355536 7.753142 6.788100 2.167284 2.890095 0.946716 4.354479 -7.828483 59.314913 21.321199 55.636351 -20.161467 0.000000 0.000000 0.000000 
0.004115 93.689514 -6.771400 0.000000 0.000000 0.000000 14.376686 -24.938286 -2.710789 -78.764512 -6.499430 22.305019 43.966119 -0.227959 3.283703 21.537914 -17.232998 1.657882 -4.799623 -2.177374 0.996524 0.000000 0.000000 0.000000 13.195676 -20.775861 -3.778830 -19.671315 -20.852340 -5.615487 61.267145 5.265127 -15.860809 -22.357962 -3.861835 24.670476 -4.158071 0.725060 0.199430 0.000000 0.000000 0.000000 11.898700 -25.834572 -4.547331 8.983651 4.113040 -1.278307 12.689939 7.235451 -1.378297 2.075365 -0.325726 0.475567 0.000000 0.000000 0.000000 11.445611 6.791553 -0.930060 -11.216592 -4.603014 -0.619823 -9.629745 21.216903 -0.040935 0.000000 0.000000 0.000000 12.266793 7.227106 -1.789258 3.020087 -3.797784 -2.532027 -1.618615 -2.624634 1.008299 15.664711 -1.017090 -56.472974 14.378255 -82.556476 1.485290 0.000000 0.000000 0.000000 13.105906 7.812399 -1.155932 2.515150 5.343958 4.853658 3.329561 2.984638 1.266267 2.867544 -5.050674 60.556348 26.689878 56.053607 -26.514878 0.000000 0.000000 0.000000 
-0.116261 90.358070 -7.324932 0.000000 0.000000 0.000000 18.558418 -21.108329 -3.254999 -88.541894 -6.416009 21.714358 47.603164 2.202537 3.822798 23.763603 -18.466834 3.135292 -3.957698 -1.659472 0.518705 0.000000 0.000000 0.000000 16.955820 -17.987872 -4.083313 -25.344407 -21.369985 -4.224084 70.691939 4.561218 -18.088016 -23.578834 -4.341515 25.313538 -4.679259 0.731629 0.327565 0.000000 0.000000 0.000000 16.559510 -23.603827 -4.325540 9.150444 4.296696 -1.481939 12.886571 6.710208 -0.942355 1.789602 0.088547 0.459264 0.000000 0.000000 0.000000 12.107285 6.363633 -0.622116 -14.761965 -4.515483 -1.211622 -10.072972 21.516747 0.024768 0.000000 0.000000 0.000000 12.754174 6.866811 -1.313023 3.088292 -2.427987 -0.830370 -2.043797 -2.277732 0.897084 15.724115 -3.374192 -59.511643 18.344555 -81.059012 6.095204 0.000000 0.000000 0.000000 13.821626 7.280908 -0.971838 2.685671 2.392990 2.373711 4.371510 3.069818 1.473975 0.161382 -2.742387 62.625294 29.085845 54.894664 -30.222894 0.000000 0.000000 0.000000 
0.036639 86.247925 -7.594051 0.000000 0.000000 0.000000 22.335958 -18.097057 -3.784940 -97.926519 -6.620289 19.758212 51.974857 4.233747 4.348693 26.473610 -19.839251 3.474217 -4.011763 -1.176606 0.011762 0.000000 0.000000 0.000000 20.310531 -15.390204 -4.617619 -30.801421 -21.688704 -2.900070 78.887128 2.899829 -19.321217 -25.460329 -5.568768 24.847801 -4.415066 0.651677 0.810530 0.000000 0.000000 0.000000 21.018961 -21.802773 -4.121309 9.251958 4.599097 -1.691410 13.280084 6.243846 -0.522015 0.776477 0.243783 0.530625 0.000000 0.000000 0.000000 12.770461 6.039056 -0.373726 -19.099348 -4.452473 -1.765795 -11.017645 21.566915 0.631934 0.000000 0.000000 0.000000 13.470542 6.581131 -0.856694 3.148847 -0.468386 1.044164 -2.578323 -1.423414 0.314211 13.030426 -6.040314 -63.772903 19.812179 -76.708420 9.084182 0.000000 0.000000 0.000000 14.617945 6.844144 -0.806990 2.885703 -0.768740 -0.556603 5.290939 3.089358 1.799769 -3.401218 -0.453073 65.297858 28.178031 52.700951 -30.755912 0.000000 0.000000 0.000000 
0.381231 81.741783 -7.125214 0.000000 0.000000 0.000000 25.543651 -15.910716 -4.103949 -106.157314 -6.890571 16.874921 56.781111 5.711236 4.895663 29.623671 -21.177140 3.147130 -4.782164 -0.825957 -0.225928 0.000000 0.000000 0.000000 23.409058 -13.281846 -5.000632 -35.219433 -21.750273 -1.771803 84.616570 0.793256 -19.580607 -27.695165 -7.298102 23.415570 -3.607750 0.533492 1.705765 0.000000 0.000000 0.000000 24.789215 -20.214056 -4.029949 9.339271 4.731469 -1.938213 13.830589 5.856903 -0.071880 -0.091522 0.242523 0.656038 0.000000 0.000000 0.000000 13.429427 5.768875 -0.097685 -23.580484 -4.535587 -2.293451 -12.270506 21.363305 1.712856 0.000000 0.000000 0.000000 14.324561 6.353492 -0.405177 3.165311 1.772420 2.803084 -2.759766 -0.536856 -0.236734 8.306091 -9.132104 -68.623081 19.487657 -71.717102 11.069291 0.000000 0.000000 0.000000 15.388432 6.491935 -0.599444 3.039918 -3.785778 -3.842655 6.156809 3.352233 2.346125 -7.617818 2.903972 68.094213 25.685992 51.334578 -29.623401 0.000000 0.000000 0.000000 
